<mxfile host="app.diagrams.net" modified="2023-04-05T01:28:31.793Z" agent="Mozilla/5.0 (Windows NT 10.0; Win64; x64) AppleWebKit/537.36 (KHTML, like Gecko) Chrome/111.0.0.0 Safari/537.36" etag="A7SshRfxThmSbgMe54vq" version="21.1.4" type="device">
  <diagram id="zFz2YMJysThdmXx1fkkv" name="Page-1">
    <mxGraphModel dx="1050" dy="541" grid="1" gridSize="10" guides="1" tooltips="1" connect="1" arrows="1" fold="1" page="1" pageScale="1" pageWidth="850" pageHeight="1100" math="0" shadow="0">
      <root>
        <mxCell id="0" />
        <mxCell id="1" parent="0" />
        <mxCell id="hqCjNfawcyRC9tDdw2BZ-3" value="" style="group" parent="1" vertex="1" connectable="0">
          <mxGeometry x="450" y="220" width="180" height="70" as="geometry" />
        </mxCell>
        <mxCell id="hqCjNfawcyRC9tDdw2BZ-1" value="Physics Task" style="rounded=0;whiteSpace=wrap;html=1;" parent="hqCjNfawcyRC9tDdw2BZ-3" vertex="1">
          <mxGeometry width="180" height="70" as="geometry" />
        </mxCell>
        <mxCell id="hqCjNfawcyRC9tDdw2BZ-2" value="" style="sketch=0;pointerEvents=1;shadow=0;dashed=0;html=1;strokeColor=none;fillColor=#505050;labelPosition=center;verticalLabelPosition=bottom;verticalAlign=top;outlineConnect=0;align=center;shape=mxgraph.office.concepts.clock;" parent="hqCjNfawcyRC9tDdw2BZ-3" vertex="1">
          <mxGeometry x="81" y="43.75" width="18" height="17.5" as="geometry" />
        </mxCell>
        <mxCell id="hqCjNfawcyRC9tDdw2BZ-6" value="" style="group" parent="1" vertex="1" connectable="0">
          <mxGeometry x="270" y="280" width="110" height="60" as="geometry" />
        </mxCell>
        <mxCell id="hqCjNfawcyRC9tDdw2BZ-4" value="Capsense Task&lt;br&gt;&lt;br&gt;" style="rounded=0;whiteSpace=wrap;html=1;" parent="hqCjNfawcyRC9tDdw2BZ-6" vertex="1">
          <mxGeometry width="109.99999999999999" height="60" as="geometry" />
        </mxCell>
        <mxCell id="hqCjNfawcyRC9tDdw2BZ-5" value="" style="sketch=0;pointerEvents=1;shadow=0;dashed=0;html=1;strokeColor=none;fillColor=#505050;labelPosition=center;verticalLabelPosition=bottom;verticalAlign=top;outlineConnect=0;align=center;shape=mxgraph.office.concepts.clock;" parent="hqCjNfawcyRC9tDdw2BZ-6" vertex="1">
          <mxGeometry x="46.56666666666666" y="30" width="19.433333333333334" height="22.5" as="geometry" />
        </mxCell>
        <mxCell id="hqCjNfawcyRC9tDdw2BZ-7" value="B0/B1 ISR" style="ellipse;whiteSpace=wrap;html=1;aspect=fixed;" parent="1" vertex="1">
          <mxGeometry x="170" y="60" width="50" height="50" as="geometry" />
        </mxCell>
        <mxCell id="hqCjNfawcyRC9tDdw2BZ-8" value="B0/B1" style="whiteSpace=wrap;html=1;aspect=fixed;" parent="1" vertex="1">
          <mxGeometry x="40" y="55" width="60" height="60" as="geometry" />
        </mxCell>
        <mxCell id="hqCjNfawcyRC9tDdw2BZ-9" value="" style="endArrow=classic;html=1;rounded=0;exitX=1;exitY=0.25;exitDx=0;exitDy=0;entryX=0.006;entryY=0.332;entryDx=0;entryDy=0;entryPerimeter=0;" parent="1" source="hqCjNfawcyRC9tDdw2BZ-8" target="hqCjNfawcyRC9tDdw2BZ-7" edge="1">
          <mxGeometry width="50" height="50" relative="1" as="geometry">
            <mxPoint x="430" y="290" as="sourcePoint" />
            <mxPoint x="480" y="240" as="targetPoint" />
          </mxGeometry>
        </mxCell>
        <mxCell id="hqCjNfawcyRC9tDdw2BZ-10" value="GPIO Int" style="edgeLabel;html=1;align=center;verticalAlign=middle;resizable=0;points=[];" parent="hqCjNfawcyRC9tDdw2BZ-9" vertex="1" connectable="0">
          <mxGeometry x="-0.2347" y="2" relative="1" as="geometry">
            <mxPoint as="offset" />
          </mxGeometry>
        </mxCell>
        <mxCell id="hqCjNfawcyRC9tDdw2BZ-11" value="" style="endArrow=classic;html=1;rounded=0;exitX=1;exitY=0.75;exitDx=0;exitDy=0;entryX=0.051;entryY=0.707;entryDx=0;entryDy=0;entryPerimeter=0;" parent="1" source="hqCjNfawcyRC9tDdw2BZ-8" target="hqCjNfawcyRC9tDdw2BZ-7" edge="1">
          <mxGeometry width="50" height="50" relative="1" as="geometry">
            <mxPoint x="100" y="180" as="sourcePoint" />
            <mxPoint x="150" y="130" as="targetPoint" />
          </mxGeometry>
        </mxCell>
        <mxCell id="hqCjNfawcyRC9tDdw2BZ-12" value="B0/B1 State" style="edgeLabel;html=1;align=center;verticalAlign=middle;resizable=0;points=[];" parent="hqCjNfawcyRC9tDdw2BZ-11" vertex="1" connectable="0">
          <mxGeometry x="-0.5118" y="2" relative="1" as="geometry">
            <mxPoint as="offset" />
          </mxGeometry>
        </mxCell>
        <mxCell id="fhYXu_dd7m-l2hDApE7o-1" value="" style="endArrow=classic;html=1;rounded=0;exitX=0.5;exitY=1;exitDx=0;exitDy=0;" parent="1" source="hqCjNfawcyRC9tDdw2BZ-7" edge="1">
          <mxGeometry width="50" height="50" relative="1" as="geometry">
            <mxPoint x="280" y="110" as="sourcePoint" />
            <mxPoint x="195" y="170" as="targetPoint" />
          </mxGeometry>
        </mxCell>
        <mxCell id="fhYXu_dd7m-l2hDApE7o-11" value="" style="endArrow=classic;html=1;rounded=0;entryX=0;entryY=0.75;entryDx=0;entryDy=0;" parent="1" target="fhYXu_dd7m-l2hDApE7o-7" edge="1">
          <mxGeometry width="50" height="50" relative="1" as="geometry">
            <mxPoint x="240" y="190" as="sourcePoint" />
            <mxPoint x="290" y="140" as="targetPoint" />
          </mxGeometry>
        </mxCell>
        <mxCell id="fhYXu_dd7m-l2hDApE7o-14" value="" style="group" parent="1" vertex="1" connectable="0">
          <mxGeometry x="740" y="130" width="120" height="60" as="geometry" />
        </mxCell>
        <mxCell id="fhYXu_dd7m-l2hDApE7o-12" value="Display Task&lt;br&gt;(LCD/LED)&lt;br&gt;&lt;br&gt;" style="rounded=0;whiteSpace=wrap;html=1;" parent="fhYXu_dd7m-l2hDApE7o-14" vertex="1">
          <mxGeometry width="120" height="60" as="geometry" />
        </mxCell>
        <mxCell id="fhYXu_dd7m-l2hDApE7o-13" value="" style="sketch=0;pointerEvents=1;shadow=0;dashed=0;html=1;strokeColor=none;fillColor=#505050;labelPosition=center;verticalLabelPosition=bottom;verticalAlign=top;outlineConnect=0;align=center;shape=mxgraph.office.concepts.clock;" parent="fhYXu_dd7m-l2hDApE7o-14" vertex="1">
          <mxGeometry x="46.75" y="37.5" width="26.5" height="22.5" as="geometry" />
        </mxCell>
        <mxCell id="fhYXu_dd7m-l2hDApE7o-8" value="" style="endArrow=classic;html=1;rounded=0;entryX=0;entryY=0.25;entryDx=0;entryDy=0;" parent="1" source="fhYXu_dd7m-l2hDApE7o-9" target="fhYXu_dd7m-l2hDApE7o-7" edge="1">
          <mxGeometry width="50" height="50" relative="1" as="geometry">
            <mxPoint x="220" y="80" as="sourcePoint" />
            <mxPoint x="270" y="130" as="targetPoint" />
          </mxGeometry>
        </mxCell>
        <mxCell id="fhYXu_dd7m-l2hDApE7o-10" value="Semaphore" style="edgeLabel;html=1;align=center;verticalAlign=middle;resizable=0;points=[];" parent="fhYXu_dd7m-l2hDApE7o-8" vertex="1" connectable="0">
          <mxGeometry x="0.1917" y="-1" relative="1" as="geometry">
            <mxPoint x="7" y="-47" as="offset" />
          </mxGeometry>
        </mxCell>
        <mxCell id="fhYXu_dd7m-l2hDApE7o-20" style="edgeStyle=orthogonalEdgeStyle;rounded=0;orthogonalLoop=1;jettySize=auto;html=1;entryX=0;entryY=0.75;entryDx=0;entryDy=0;exitX=1;exitY=0.25;exitDx=0;exitDy=0;" parent="1" source="hqCjNfawcyRC9tDdw2BZ-4" target="hqCjNfawcyRC9tDdw2BZ-1" edge="1">
          <mxGeometry relative="1" as="geometry" />
        </mxCell>
        <mxCell id="fhYXu_dd7m-l2hDApE7o-21" value="Plat Force Update" style="edgeLabel;html=1;align=center;verticalAlign=middle;resizable=0;points=[];" parent="fhYXu_dd7m-l2hDApE7o-20" vertex="1" connectable="0">
          <mxGeometry x="0.3231" y="-1" relative="1" as="geometry">
            <mxPoint x="-19" y="-10" as="offset" />
          </mxGeometry>
        </mxCell>
        <mxCell id="fhYXu_dd7m-l2hDApE7o-33" value="" style="group" parent="1" vertex="1" connectable="0">
          <mxGeometry x="145" y="170" width="100" height="30" as="geometry" />
        </mxCell>
        <mxCell id="fhYXu_dd7m-l2hDApE7o-2" value="" style="endArrow=none;html=1;rounded=0;" parent="fhYXu_dd7m-l2hDApE7o-33" edge="1">
          <mxGeometry width="50" height="50" relative="1" as="geometry">
            <mxPoint x="5" as="sourcePoint" />
            <mxPoint x="95" as="targetPoint" />
          </mxGeometry>
        </mxCell>
        <mxCell id="fhYXu_dd7m-l2hDApE7o-3" value="" style="endArrow=none;html=1;rounded=0;" parent="fhYXu_dd7m-l2hDApE7o-33" edge="1">
          <mxGeometry width="50" height="50" relative="1" as="geometry">
            <mxPoint x="95" y="30" as="sourcePoint" />
            <mxPoint x="5" y="30" as="targetPoint" />
            <Array as="points" />
          </mxGeometry>
        </mxCell>
        <mxCell id="fhYXu_dd7m-l2hDApE7o-4" value="Bttn Event Fifo" style="text;html=1;align=center;verticalAlign=middle;resizable=0;points=[];autosize=1;strokeColor=none;fillColor=none;" parent="fhYXu_dd7m-l2hDApE7o-33" vertex="1">
          <mxGeometry width="100" height="30" as="geometry" />
        </mxCell>
        <mxCell id="fhYXu_dd7m-l2hDApE7o-34" value="" style="group" parent="1" vertex="1" connectable="0">
          <mxGeometry x="560" y="120" width="100.71428571428571" height="40" as="geometry" />
        </mxCell>
        <mxCell id="fhYXu_dd7m-l2hDApE7o-35" value="" style="endArrow=none;html=1;rounded=0;" parent="fhYXu_dd7m-l2hDApE7o-34" edge="1">
          <mxGeometry width="50" height="50" relative="1" as="geometry">
            <mxPoint x="10.052910052910052" as="sourcePoint" />
            <mxPoint x="90.47619047619047" as="targetPoint" />
          </mxGeometry>
        </mxCell>
        <mxCell id="fhYXu_dd7m-l2hDApE7o-36" value="" style="endArrow=none;html=1;rounded=0;" parent="fhYXu_dd7m-l2hDApE7o-34" edge="1">
          <mxGeometry width="50" height="50" relative="1" as="geometry">
            <mxPoint x="10.052910052910052" y="40" as="sourcePoint" />
            <mxPoint x="90.47619047619047" y="40" as="targetPoint" />
          </mxGeometry>
        </mxCell>
        <mxCell id="fhYXu_dd7m-l2hDApE7o-37" value="&amp;nbsp; &amp;nbsp;Game.Railgun" style="text;html=1;align=center;verticalAlign=middle;resizable=0;points=[];autosize=1;strokeColor=none;fillColor=none;" parent="fhYXu_dd7m-l2hDApE7o-34" vertex="1">
          <mxGeometry x="-9.285714285714286" y="5" width="110" height="30" as="geometry" />
        </mxCell>
        <mxCell id="fhYXu_dd7m-l2hDApE7o-38" value="Note: Game is the main super data structure holding all variables needed for the game to run" style="text;html=1;align=center;verticalAlign=middle;resizable=0;points=[];autosize=1;strokeColor=none;fillColor=none;" parent="1" vertex="1">
          <mxGeometry x="250" y="20" width="520" height="30" as="geometry" />
        </mxCell>
        <mxCell id="fhYXu_dd7m-l2hDApE7o-45" value="" style="endArrow=classic;html=1;rounded=0;exitX=1;exitY=0.75;exitDx=0;exitDy=0;" parent="1" source="fhYXu_dd7m-l2hDApE7o-51" edge="1">
          <mxGeometry width="50" height="50" relative="1" as="geometry">
            <mxPoint x="390" y="170" as="sourcePoint" />
            <mxPoint x="560" y="140" as="targetPoint" />
          </mxGeometry>
        </mxCell>
        <mxCell id="fhYXu_dd7m-l2hDApE7o-50" value="" style="group" parent="1" vertex="1" connectable="0">
          <mxGeometry x="270" y="130" width="110" height="50" as="geometry" />
        </mxCell>
        <mxCell id="fhYXu_dd7m-l2hDApE7o-7" value="Button Task" style="rounded=0;whiteSpace=wrap;html=1;" parent="fhYXu_dd7m-l2hDApE7o-50" vertex="1">
          <mxGeometry width="110" height="50" as="geometry" />
        </mxCell>
        <mxCell id="fhYXu_dd7m-l2hDApE7o-52" value="" style="endArrow=classic;html=1;rounded=0;exitX=1;exitY=0.75;exitDx=0;exitDy=0;" parent="1" source="fhYXu_dd7m-l2hDApE7o-7" target="fhYXu_dd7m-l2hDApE7o-51" edge="1">
          <mxGeometry width="50" height="50" relative="1" as="geometry">
            <mxPoint x="380" y="168" as="sourcePoint" />
            <mxPoint x="550" y="154" as="targetPoint" />
          </mxGeometry>
        </mxCell>
        <mxCell id="fhYXu_dd7m-l2hDApE7o-51" value="&lt;font style=&quot;font-size: 9px;&quot;&gt;Mutex&lt;/font&gt;" style="sketch=0;aspect=fixed;pointerEvents=1;shadow=0;dashed=0;html=1;strokeColor=none;labelPosition=center;verticalLabelPosition=bottom;verticalAlign=top;align=center;fillColor=#00188D;shape=mxgraph.mscae.enterprise.key_permissions" parent="1" vertex="1">
          <mxGeometry x="460" y="151.25" width="10.4" height="20" as="geometry" />
        </mxCell>
        <mxCell id="fhYXu_dd7m-l2hDApE7o-55" value="" style="endArrow=classic;startArrow=classic;html=1;rounded=0;entryX=0.425;entryY=1.088;entryDx=0;entryDy=0;entryPerimeter=0;exitX=0.823;exitY=-0.044;exitDx=0;exitDy=0;exitPerimeter=0;" parent="1" source="fhYXu_dd7m-l2hDApE7o-56" target="fhYXu_dd7m-l2hDApE7o-37" edge="1">
          <mxGeometry width="50" height="50" relative="1" as="geometry">
            <mxPoint x="580" y="220" as="sourcePoint" />
            <mxPoint x="630" y="170" as="targetPoint" />
          </mxGeometry>
        </mxCell>
        <mxCell id="fhYXu_dd7m-l2hDApE7o-57" value="" style="endArrow=classic;startArrow=classic;html=1;rounded=0;entryX=0.425;entryY=1.088;entryDx=0;entryDy=0;entryPerimeter=0;exitX=0.823;exitY=-0.044;exitDx=0;exitDy=0;exitPerimeter=0;" parent="1" source="hqCjNfawcyRC9tDdw2BZ-1" target="fhYXu_dd7m-l2hDApE7o-56" edge="1">
          <mxGeometry width="50" height="50" relative="1" as="geometry">
            <mxPoint x="598" y="217" as="sourcePoint" />
            <mxPoint x="597" y="168" as="targetPoint" />
          </mxGeometry>
        </mxCell>
        <mxCell id="fhYXu_dd7m-l2hDApE7o-56" value="&lt;font style=&quot;font-size: 9px;&quot;&gt;Mutex&lt;/font&gt;" style="sketch=0;aspect=fixed;pointerEvents=1;shadow=0;dashed=0;html=1;strokeColor=none;labelPosition=center;verticalLabelPosition=bottom;verticalAlign=top;align=center;fillColor=#00188D;shape=mxgraph.mscae.enterprise.key_permissions" parent="1" vertex="1">
          <mxGeometry x="620" y="180" width="10.4" height="20" as="geometry" />
        </mxCell>
        <mxCell id="fhYXu_dd7m-l2hDApE7o-60" value="" style="html=1;verticalLabelPosition=bottom;align=center;labelBackgroundColor=#ffffff;verticalAlign=top;strokeWidth=2;strokeColor=#0080F0;shadow=0;dashed=0;shape=mxgraph.ios7.icons.flag;" parent="1" vertex="1">
          <mxGeometry x="410.4" y="280" width="10" height="19" as="geometry" />
        </mxCell>
        <mxCell id="fhYXu_dd7m-l2hDApE7o-61" value="" style="endArrow=classic;html=1;rounded=0;entryX=0;entryY=0.5;entryDx=0;entryDy=0;" parent="1" target="hqCjNfawcyRC9tDdw2BZ-1" edge="1">
          <mxGeometry width="50" height="50" relative="1" as="geometry">
            <mxPoint x="300" y="180" as="sourcePoint" />
            <mxPoint x="440" y="230" as="targetPoint" />
            <Array as="points">
              <mxPoint x="300" y="255" />
            </Array>
          </mxGeometry>
        </mxCell>
        <mxCell id="fhYXu_dd7m-l2hDApE7o-63" value="&lt;font style=&quot;font-size: 9px;&quot;&gt;Shield Update&lt;/font&gt;" style="edgeLabel;html=1;align=center;verticalAlign=middle;resizable=0;points=[];" parent="fhYXu_dd7m-l2hDApE7o-61" vertex="1" connectable="0">
          <mxGeometry x="-0.79" y="-1" relative="1" as="geometry">
            <mxPoint x="-3" y="23" as="offset" />
          </mxGeometry>
        </mxCell>
        <mxCell id="fhYXu_dd7m-l2hDApE7o-62" value="" style="html=1;verticalLabelPosition=bottom;align=center;labelBackgroundColor=#ffffff;verticalAlign=top;strokeWidth=2;strokeColor=#0080F0;shadow=0;dashed=0;shape=mxgraph.ios7.icons.flag;" parent="1" vertex="1">
          <mxGeometry x="300" y="245" width="10" height="20" as="geometry" />
        </mxCell>
        <mxCell id="fhYXu_dd7m-l2hDApE7o-72" value="" style="group" parent="1" vertex="1" connectable="0">
          <mxGeometry x="850" y="290" width="100" height="40" as="geometry" />
        </mxCell>
        <mxCell id="fhYXu_dd7m-l2hDApE7o-73" value="" style="endArrow=none;html=1;rounded=0;" parent="fhYXu_dd7m-l2hDApE7o-72" edge="1">
          <mxGeometry width="50" height="50" relative="1" as="geometry">
            <mxPoint x="10.555555555555555" as="sourcePoint" />
            <mxPoint x="94.99999999999999" as="targetPoint" />
          </mxGeometry>
        </mxCell>
        <mxCell id="fhYXu_dd7m-l2hDApE7o-74" value="" style="endArrow=none;html=1;rounded=0;" parent="fhYXu_dd7m-l2hDApE7o-72" edge="1">
          <mxGeometry width="50" height="50" relative="1" as="geometry">
            <mxPoint x="10.555555555555555" y="40" as="sourcePoint" />
            <mxPoint x="94.99999999999999" y="40" as="targetPoint" />
          </mxGeometry>
        </mxCell>
        <mxCell id="fhYXu_dd7m-l2hDApE7o-75" value="&amp;nbsp; &amp;nbsp;Game.Sachels" style="text;html=1;align=center;verticalAlign=middle;resizable=0;points=[];autosize=1;strokeColor=none;fillColor=none;" parent="fhYXu_dd7m-l2hDApE7o-72" vertex="1">
          <mxGeometry x="-10" y="5" width="110" height="30" as="geometry" />
        </mxCell>
        <mxCell id="fhYXu_dd7m-l2hDApE7o-76" value="" style="endArrow=classic;html=1;rounded=0;exitX=0.75;exitY=1;exitDx=0;exitDy=0;" parent="1" source="fhYXu_dd7m-l2hDApE7o-77" target="fhYXu_dd7m-l2hDApE7o-71" edge="1">
          <mxGeometry width="50" height="50" relative="1" as="geometry">
            <mxPoint x="520" y="390" as="sourcePoint" />
            <mxPoint x="585" y="380" as="targetPoint" />
          </mxGeometry>
        </mxCell>
        <mxCell id="fhYXu_dd7m-l2hDApE7o-78" value="" style="endArrow=classic;html=1;rounded=0;exitX=0.75;exitY=1;exitDx=0;exitDy=0;entryX=-0.019;entryY=0.508;entryDx=0;entryDy=0;entryPerimeter=0;" parent="1" source="hqCjNfawcyRC9tDdw2BZ-1" target="fhYXu_dd7m-l2hDApE7o-77" edge="1">
          <mxGeometry width="50" height="50" relative="1" as="geometry">
            <mxPoint x="585" y="290" as="sourcePoint" />
            <mxPoint x="598" y="380" as="targetPoint" />
          </mxGeometry>
        </mxCell>
        <mxCell id="fhYXu_dd7m-l2hDApE7o-77" value="&lt;font style=&quot;font-size: 9px;&quot;&gt;Mutex&lt;br&gt;via atomic &lt;br&gt;uint32&lt;br&gt;&lt;/font&gt;" style="sketch=0;aspect=fixed;pointerEvents=1;shadow=0;dashed=0;html=1;strokeColor=none;labelPosition=center;verticalLabelPosition=bottom;verticalAlign=top;align=center;fillColor=#00188D;shape=mxgraph.mscae.enterprise.key_permissions" parent="1" vertex="1">
          <mxGeometry x="589.6" y="320" width="10.4" height="20" as="geometry" />
        </mxCell>
        <mxCell id="fhYXu_dd7m-l2hDApE7o-80" value="" style="endArrow=classic;html=1;rounded=0;entryX=0.179;entryY=1.046;entryDx=0;entryDy=0;entryPerimeter=0;" parent="1" source="fhYXu_dd7m-l2hDApE7o-81" target="fhYXu_dd7m-l2hDApE7o-12" edge="1">
          <mxGeometry width="50" height="50" relative="1" as="geometry">
            <mxPoint x="680" y="370" as="sourcePoint" />
            <mxPoint x="730" y="320" as="targetPoint" />
          </mxGeometry>
        </mxCell>
        <mxCell id="fhYXu_dd7m-l2hDApE7o-82" value="" style="endArrow=classic;html=1;rounded=0;entryX=0.179;entryY=1.046;entryDx=0;entryDy=0;entryPerimeter=0;" parent="1" target="fhYXu_dd7m-l2hDApE7o-81" edge="1">
          <mxGeometry width="50" height="50" relative="1" as="geometry">
            <mxPoint x="680" y="370" as="sourcePoint" />
            <mxPoint x="761" y="193" as="targetPoint" />
          </mxGeometry>
        </mxCell>
        <mxCell id="fhYXu_dd7m-l2hDApE7o-81" value="&lt;font style=&quot;font-size: 9px;&quot;&gt;Mutex&lt;br style=&quot;border-color: var(--border-color);&quot;&gt;via atomic&lt;br style=&quot;border-color: var(--border-color);&quot;&gt;uint32&lt;/font&gt;" style="sketch=0;aspect=fixed;pointerEvents=1;shadow=0;dashed=0;html=1;strokeColor=none;labelPosition=center;verticalLabelPosition=bottom;verticalAlign=top;align=center;fillColor=#00188D;shape=mxgraph.mscae.enterprise.key_permissions" parent="1" vertex="1">
          <mxGeometry x="750" y="230" width="10.4" height="20" as="geometry" />
        </mxCell>
        <mxCell id="fhYXu_dd7m-l2hDApE7o-84" value="" style="endArrow=classic;html=1;rounded=0;entryX=0.182;entryY=0.5;entryDx=0;entryDy=0;entryPerimeter=0;" parent="1" source="fhYXu_dd7m-l2hDApE7o-85" target="fhYXu_dd7m-l2hDApE7o-75" edge="1">
          <mxGeometry width="50" height="50" relative="1" as="geometry">
            <mxPoint x="630" y="270" as="sourcePoint" />
            <mxPoint x="680" y="220" as="targetPoint" />
          </mxGeometry>
        </mxCell>
        <mxCell id="fhYXu_dd7m-l2hDApE7o-86" value="" style="endArrow=classic;html=1;rounded=0;entryX=0.182;entryY=0.5;entryDx=0;entryDy=0;entryPerimeter=0;" parent="1" target="fhYXu_dd7m-l2hDApE7o-85" edge="1">
          <mxGeometry width="50" height="50" relative="1" as="geometry">
            <mxPoint x="630" y="270" as="sourcePoint" />
            <mxPoint x="790" y="310" as="targetPoint" />
          </mxGeometry>
        </mxCell>
        <mxCell id="fhYXu_dd7m-l2hDApE7o-85" value="&lt;font style=&quot;font-size: 9px;&quot;&gt;Mutex&lt;/font&gt;&lt;br style=&quot;border-color: var(--border-color); font-size: 9px;&quot;&gt;&lt;span style=&quot;font-size: 9px;&quot;&gt;via atomic&lt;/span&gt;&lt;br style=&quot;border-color: var(--border-color); font-size: 9px;&quot;&gt;&lt;span style=&quot;font-size: 9px;&quot;&gt;uint32&lt;/span&gt;" style="sketch=0;aspect=fixed;pointerEvents=1;shadow=0;dashed=0;html=1;strokeColor=none;labelPosition=center;verticalLabelPosition=bottom;verticalAlign=top;align=center;fillColor=#00188D;shape=mxgraph.mscae.enterprise.key_permissions" parent="1" vertex="1">
          <mxGeometry x="659.8000000000001" y="279" width="10.4" height="20" as="geometry" />
        </mxCell>
        <mxCell id="fhYXu_dd7m-l2hDApE7o-90" value="" style="endArrow=classic;html=1;rounded=0;entryX=0.708;entryY=1.054;entryDx=0;entryDy=0;entryPerimeter=0;" parent="1" source="fhYXu_dd7m-l2hDApE7o-91" target="fhYXu_dd7m-l2hDApE7o-12" edge="1">
          <mxGeometry width="50" height="50" relative="1" as="geometry">
            <mxPoint x="830" y="290" as="sourcePoint" />
            <mxPoint x="880" y="240" as="targetPoint" />
          </mxGeometry>
        </mxCell>
        <mxCell id="fhYXu_dd7m-l2hDApE7o-92" value="" style="endArrow=classic;html=1;rounded=0;entryX=0.708;entryY=1.054;entryDx=0;entryDy=0;entryPerimeter=0;" parent="1" target="fhYXu_dd7m-l2hDApE7o-91" edge="1">
          <mxGeometry width="50" height="50" relative="1" as="geometry">
            <mxPoint x="920" y="290" as="sourcePoint" />
            <mxPoint x="825" y="193" as="targetPoint" />
          </mxGeometry>
        </mxCell>
        <mxCell id="fhYXu_dd7m-l2hDApE7o-91" value="&lt;font style=&quot;font-size: 9px;&quot;&gt;Mutex&lt;br&gt;via atomic&lt;br&gt;uint32&lt;br&gt;&lt;/font&gt;" style="sketch=0;aspect=fixed;pointerEvents=1;shadow=0;dashed=0;html=1;strokeColor=none;labelPosition=center;verticalLabelPosition=bottom;verticalAlign=top;align=center;fillColor=#00188D;shape=mxgraph.mscae.enterprise.key_permissions" parent="1" vertex="1">
          <mxGeometry x="880" y="210" width="10.4" height="20" as="geometry" />
        </mxCell>
        <mxCell id="fhYXu_dd7m-l2hDApE7o-93" value="" style="endArrow=classic;html=1;rounded=0;entryX=0;entryY=0.5;entryDx=0;entryDy=0;" parent="1" source="fhYXu_dd7m-l2hDApE7o-94" target="fhYXu_dd7m-l2hDApE7o-12" edge="1">
          <mxGeometry width="50" height="50" relative="1" as="geometry">
            <mxPoint x="660" y="120" as="sourcePoint" />
            <mxPoint x="710" y="70" as="targetPoint" />
          </mxGeometry>
        </mxCell>
        <mxCell id="fhYXu_dd7m-l2hDApE7o-95" value="" style="endArrow=classic;html=1;rounded=0;entryX=0;entryY=0.5;entryDx=0;entryDy=0;" parent="1" source="fhYXu_dd7m-l2hDApE7o-37" target="fhYXu_dd7m-l2hDApE7o-94" edge="1">
          <mxGeometry width="50" height="50" relative="1" as="geometry">
            <mxPoint x="660" y="120" as="sourcePoint" />
            <mxPoint x="740" y="160" as="targetPoint" />
          </mxGeometry>
        </mxCell>
        <mxCell id="fhYXu_dd7m-l2hDApE7o-94" value="&lt;font style=&quot;font-size: 9px;&quot;&gt;Mutex&lt;/font&gt;" style="sketch=0;aspect=fixed;pointerEvents=1;shadow=0;dashed=0;html=1;strokeColor=none;labelPosition=center;verticalLabelPosition=bottom;verticalAlign=top;align=center;fillColor=#00188D;shape=mxgraph.mscae.enterprise.key_permissions" parent="1" vertex="1">
          <mxGeometry x="700" y="130" width="10.4" height="20" as="geometry" />
        </mxCell>
        <mxCell id="fhYXu_dd7m-l2hDApE7o-98" value="" style="endArrow=classic;html=1;rounded=0;entryX=0;entryY=0.25;entryDx=0;entryDy=0;" parent="1" target="fhYXu_dd7m-l2hDApE7o-9" edge="1">
          <mxGeometry width="50" height="50" relative="1" as="geometry">
            <mxPoint x="220" y="80" as="sourcePoint" />
            <mxPoint x="270" y="143" as="targetPoint" />
          </mxGeometry>
        </mxCell>
        <mxCell id="fhYXu_dd7m-l2hDApE7o-9" value="" style="sketch=0;aspect=fixed;pointerEvents=1;shadow=0;dashed=0;html=1;strokeColor=none;labelPosition=center;verticalLabelPosition=bottom;verticalAlign=top;align=center;fillColor=#00188D;shape=mxgraph.mscae.enterprise.key_permissions" parent="1" vertex="1">
          <mxGeometry x="245.00000000000003" y="110" width="10.4" height="20" as="geometry" />
        </mxCell>
        <mxCell id="fhYXu_dd7m-l2hDApE7o-101" value="" style="group" parent="1" vertex="1" connectable="0">
          <mxGeometry x="740.4" y="380" width="110" height="40" as="geometry" />
        </mxCell>
        <mxCell id="fhYXu_dd7m-l2hDApE7o-102" value="" style="endArrow=none;html=1;rounded=0;" parent="fhYXu_dd7m-l2hDApE7o-101" edge="1">
          <mxGeometry width="50" height="50" relative="1" as="geometry">
            <mxPoint x="10.555555555555555" as="sourcePoint" />
            <mxPoint x="94.99999999999999" as="targetPoint" />
          </mxGeometry>
        </mxCell>
        <mxCell id="fhYXu_dd7m-l2hDApE7o-103" value="" style="endArrow=none;html=1;rounded=0;" parent="fhYXu_dd7m-l2hDApE7o-101" edge="1">
          <mxGeometry width="50" height="50" relative="1" as="geometry">
            <mxPoint x="10.555555555555555" y="40" as="sourcePoint" />
            <mxPoint x="94.99999999999999" y="40" as="targetPoint" />
          </mxGeometry>
        </mxCell>
        <mxCell id="fhYXu_dd7m-l2hDApE7o-104" value="Game.Platform" style="text;html=1;align=center;verticalAlign=middle;resizable=0;points=[];autosize=1;strokeColor=none;fillColor=none;" parent="fhYXu_dd7m-l2hDApE7o-101" vertex="1">
          <mxGeometry x="-5" y="5" width="100" height="30" as="geometry" />
        </mxCell>
        <mxCell id="fhYXu_dd7m-l2hDApE7o-105" value="" style="endArrow=classic;html=1;rounded=0;" parent="1" source="fhYXu_dd7m-l2hDApE7o-106" edge="1">
          <mxGeometry width="50" height="50" relative="1" as="geometry">
            <mxPoint x="630" y="250" as="sourcePoint" />
            <mxPoint x="770" y="380" as="targetPoint" />
            <Array as="points" />
          </mxGeometry>
        </mxCell>
        <mxCell id="fhYXu_dd7m-l2hDApE7o-107" value="" style="endArrow=classic;html=1;rounded=0;" parent="1" target="fhYXu_dd7m-l2hDApE7o-106" edge="1">
          <mxGeometry width="50" height="50" relative="1" as="geometry">
            <mxPoint x="630" y="250" as="sourcePoint" />
            <mxPoint x="790" y="380" as="targetPoint" />
            <Array as="points" />
          </mxGeometry>
        </mxCell>
        <mxCell id="fhYXu_dd7m-l2hDApE7o-106" value="&lt;font style=&quot;font-size: 9px;&quot;&gt;&lt;font style=&quot;font-size: 9px;&quot;&gt;Mutex&lt;br style=&quot;border-color: var(--border-color);&quot;&gt;&lt;/font&gt;via atomic&lt;br style=&quot;border-color: var(--border-color);&quot;&gt;uint32&lt;/font&gt;" style="sketch=0;aspect=fixed;pointerEvents=1;shadow=0;dashed=0;html=1;strokeColor=none;labelPosition=center;verticalLabelPosition=bottom;verticalAlign=top;align=center;fillColor=#00188D;shape=mxgraph.mscae.enterprise.key_permissions" parent="1" vertex="1">
          <mxGeometry x="700" y="250" width="10.4" height="20" as="geometry" />
        </mxCell>
        <mxCell id="fhYXu_dd7m-l2hDApE7o-110" value="" style="endArrow=classic;html=1;rounded=0;entryX=0.383;entryY=1.052;entryDx=0;entryDy=0;entryPerimeter=0;" parent="1" source="fhYXu_dd7m-l2hDApE7o-111" target="fhYXu_dd7m-l2hDApE7o-12" edge="1">
          <mxGeometry width="50" height="50" relative="1" as="geometry">
            <mxPoint x="800" y="380" as="sourcePoint" />
            <mxPoint x="850" y="330" as="targetPoint" />
          </mxGeometry>
        </mxCell>
        <mxCell id="fhYXu_dd7m-l2hDApE7o-112" value="" style="endArrow=classic;html=1;rounded=0;entryX=0.383;entryY=1.052;entryDx=0;entryDy=0;entryPerimeter=0;" parent="1" target="fhYXu_dd7m-l2hDApE7o-111" edge="1">
          <mxGeometry width="50" height="50" relative="1" as="geometry">
            <mxPoint x="800" y="380" as="sourcePoint" />
            <mxPoint x="786" y="193" as="targetPoint" />
          </mxGeometry>
        </mxCell>
        <mxCell id="fhYXu_dd7m-l2hDApE7o-111" value="&lt;font style=&quot;font-size: 9px;&quot;&gt;Mutex&lt;br&gt;via atomic&lt;br&gt;uint32&lt;br&gt;&lt;/font&gt;" style="sketch=0;aspect=fixed;pointerEvents=1;shadow=0;dashed=0;html=1;strokeColor=none;labelPosition=center;verticalLabelPosition=bottom;verticalAlign=top;align=center;fillColor=#00188D;shape=mxgraph.mscae.enterprise.key_permissions" parent="1" vertex="1">
          <mxGeometry x="800" y="230" width="10.4" height="20" as="geometry" />
        </mxCell>
        <mxCell id="fhYXu_dd7m-l2hDApE7o-114" value="" style="endArrow=classic;html=1;rounded=0;entryX=1.021;entryY=0.671;entryDx=0;entryDy=0;entryPerimeter=0;" parent="1" target="fhYXu_dd7m-l2hDApE7o-12" edge="1">
          <mxGeometry width="50" height="50" relative="1" as="geometry">
            <mxPoint x="360" y="340" as="sourcePoint" />
            <mxPoint x="980" y="118.85716029575893" as="targetPoint" />
            <Array as="points">
              <mxPoint x="360" y="440" />
              <mxPoint x="980" y="440" />
              <mxPoint x="980" y="170" />
            </Array>
          </mxGeometry>
        </mxCell>
        <mxCell id="fhYXu_dd7m-l2hDApE7o-115" value="Force Applied/Released" style="edgeLabel;html=1;align=center;verticalAlign=middle;resizable=0;points=[];" parent="fhYXu_dd7m-l2hDApE7o-114" vertex="1" connectable="0">
          <mxGeometry x="0.745" relative="1" as="geometry">
            <mxPoint as="offset" />
          </mxGeometry>
        </mxCell>
        <mxCell id="fhYXu_dd7m-l2hDApE7o-116" value="" style="html=1;verticalLabelPosition=bottom;align=center;labelBackgroundColor=#ffffff;verticalAlign=top;strokeWidth=2;strokeColor=#0080F0;shadow=0;dashed=0;shape=mxgraph.ios7.icons.flag;" parent="1" vertex="1">
          <mxGeometry x="980" y="200" width="10" height="30" as="geometry" />
        </mxCell>
        <mxCell id="fhYXu_dd7m-l2hDApE7o-69" value="" style="endArrow=none;html=1;rounded=0;" parent="1" edge="1">
          <mxGeometry width="50" height="50" relative="1" as="geometry">
            <mxPoint x="630.5555555555555" y="369" as="sourcePoint" />
            <mxPoint x="715" y="369" as="targetPoint" />
          </mxGeometry>
        </mxCell>
        <mxCell id="fhYXu_dd7m-l2hDApE7o-70" value="" style="endArrow=none;html=1;rounded=0;" parent="1" edge="1">
          <mxGeometry width="50" height="50" relative="1" as="geometry">
            <mxPoint x="630.5555555555555" y="409" as="sourcePoint" />
            <mxPoint x="715" y="409" as="targetPoint" />
          </mxGeometry>
        </mxCell>
        <mxCell id="fhYXu_dd7m-l2hDApE7o-71" value="&amp;nbsp; &amp;nbsp;Game.Castle" style="text;html=1;align=center;verticalAlign=middle;resizable=0;points=[];autosize=1;strokeColor=none;fillColor=none;" parent="1" vertex="1">
          <mxGeometry x="615" y="374" width="100" height="30" as="geometry" />
        </mxCell>
        <mxCell id="Hx0DtqdFFiLhYH8-iXYB-3" value="" style="endArrow=classic;html=1;rounded=0;exitX=0.647;exitY=1.021;exitDx=0;exitDy=0;exitPerimeter=0;" parent="1" source="fhYXu_dd7m-l2hDApE7o-7" edge="1">
          <mxGeometry width="50" height="50" relative="1" as="geometry">
            <mxPoint x="340" y="200" as="sourcePoint" />
            <mxPoint x="450" y="240" as="targetPoint" />
            <Array as="points">
              <mxPoint x="340" y="240" />
            </Array>
          </mxGeometry>
        </mxCell>
        <mxCell id="Hx0DtqdFFiLhYH8-iXYB-5" value="&lt;font style=&quot;font-size: 9px;&quot;&gt;Railgun Update&lt;/font&gt;" style="edgeLabel;html=1;align=center;verticalAlign=middle;resizable=0;points=[];" parent="Hx0DtqdFFiLhYH8-iXYB-3" vertex="1" connectable="0">
          <mxGeometry x="-0.8102" y="-1" relative="1" as="geometry">
            <mxPoint as="offset" />
          </mxGeometry>
        </mxCell>
        <mxCell id="Hx0DtqdFFiLhYH8-iXYB-4" value="" style="html=1;verticalLabelPosition=bottom;align=center;labelBackgroundColor=#ffffff;verticalAlign=top;strokeWidth=2;strokeColor=#0080F0;shadow=0;dashed=0;shape=mxgraph.ios7.icons.flag;" parent="1" vertex="1">
          <mxGeometry x="340" y="230" width="10" height="20" as="geometry" />
        </mxCell>
      </root>
    </mxGraphModel>
  </diagram>
</mxfile>
